<svg width="50" height="50" viewBox="0 0 50 50" fill="none" xmlns="http://www.w3.org/2000/svg">
<path d="M24.9983 25.1601C24.2662 25.16 23.5577 24.9008 22.9984 24.4284C22.3614 23.8921 21.962 23.1259 21.8871 22.2966C21.8121 21.4673 22.0678 20.6419 22.5983 20.0001L38.2217 1.13017C38.4835 0.813295 38.8055 0.551388 39.1691 0.359603C39.5327 0.167818 39.9306 0.0499591 40.34 0.0127715C40.7494 -0.0244161 41.1621 0.019797 41.5542 0.142929C41.9464 0.26606 42.3103 0.46563 42.625 0.730136C43.95 1.8418 44.13 3.82181 43.025 5.15848L27.3983 24.0284C26.7817 24.7734 25.8933 25.1601 24.9983 25.1601ZM50 22.0151V25.1601C50.0015 25.5718 49.9219 25.9798 49.7656 26.3608C49.6093 26.7418 49.3796 27.0882 49.0893 27.3803C48.7991 27.6724 48.4542 27.9044 48.0742 28.0631C47.6943 28.2218 47.2867 28.304 46.875 28.3051L43.75 50H6.25002L3.12502 28.3051C2.71326 28.304 2.30573 28.2218 1.92578 28.0631C1.54583 27.9044 1.20089 27.6724 0.910665 27.3803C0.620439 27.0882 0.390653 26.7418 0.234397 26.3608C0.0781401 25.9798 -0.00151283 25.5718 2.17588e-05 25.1601V22.0151C-0.00151283 21.6034 0.0781401 21.1953 0.234397 20.8144C0.390653 20.4334 0.620439 20.087 0.910665 19.7949C1.20089 19.5028 1.54583 19.2708 1.92578 19.1121C2.30573 18.9535 2.71326 18.8712 3.12502 18.8701H21.5033L21.4 18.9968C20.6056 19.9603 20.2232 21.1983 20.3358 22.4421C20.4484 23.6858 21.047 24.8349 22.0016 25.6401C22.4733 26.0371 23.019 26.3366 23.6071 26.5214C24.1952 26.7061 24.8141 26.7725 25.428 26.7165C26.0419 26.6606 26.6386 26.4834 27.1837 26.1954C27.7287 25.9074 28.2112 25.5141 28.6033 25.0384L33.7083 18.8718H46.8766C47.2882 18.8726 47.6956 18.9547 48.0755 19.1132C48.4553 19.2717 48.8002 19.5036 49.0903 19.7956C49.3804 20.0875 49.6101 20.4339 49.7662 20.8148C49.9223 21.1956 50.0017 21.6035 50 22.0151ZM38.4517 30.9584H11.1084V34.9767H38.4517V30.9584ZM38.4517 39.3117H11.1084V43.33H38.4517V39.3117Z" fill="white"/>
</svg>
