<svg width="300" height="38" viewBox="0 0 300 38" fill="none" xmlns="http://www.w3.org/2000/svg">
<path fill-rule="evenodd" clip-rule="evenodd" d="M206.663 38L228.062 0H299.76V6.26546H245.978L240.666 15.8516H269.058L265.636 22.1171H237.095L231.632 31.7032H260.174L256.603 38H206.663ZM155.192 28.1006H176.71C175.99 29.197 175.66 30.2935 176.11 30.9827C176.89 32.2045 179.652 31.6088 180.373 31.3586C181.813 30.8887 182.593 29.9489 183.283 28.6958L186.885 22.1171H164.946C160.354 22.1171 160.204 19.2663 162.065 15.8516L168.818 3.88458C170.828 0.438582 173.53 0 176.981 0H215.126C218.998 0 218.998 3.28936 217.437 6.26546L215.277 10.3067H193.638C194.298 8.99093 194.327 7.83182 193.818 7.11129C192.978 5.92086 190.757 6.17148 189.586 6.79802C188.656 7.33059 187.876 8.23908 187.035 9.71146L183.584 15.8516H204.802C209.275 15.8516 209.965 19.2667 208.554 22.1171L202.101 33.3636C200.361 36.3397 197.36 38 193.908 38H156.033C152.312 38 151.022 35.4312 152.611 32.6117L155.192 28.1006V28.1006ZM109.874 6.26546C113.325 0 119.058 0 123.499 0H155.913C159.334 0 162.215 2.97609 160.354 6.26546L146.038 31.7032C143.007 36.7782 140.576 38 136.705 38H98.9796C95.2581 38 93.5474 35.1492 95.5582 31.7032L109.874 6.26546ZM128.691 9.71146L117.767 28.6958C117.407 29.385 117.257 30.0111 117.467 30.5128C118.157 32.0791 122.389 31.7972 123.86 31.4839C125.96 30.9827 126.501 29.4163 126.951 28.6958L137.725 9.71146C138.475 8.36439 138.385 7.48722 137.725 6.95466C136.765 6.17148 133.824 6.10882 132.203 6.57873C130.822 6.98598 129.682 7.89448 128.691 9.71146V9.71146ZM57.533 0H99.1296C102.431 0 105.012 3.13273 102.851 6.892L98.5594 14.5045C96.6987 17.9505 93.5474 19.5796 91.2365 19.5796C93.5474 20.9266 93.5474 23.3071 92.3769 25.4064L88.0852 33.2065C86.9448 35.3054 85.2041 38 79.922 38H0V31.7032H39.6158L57.533 0ZM70.018 15.8516H80.6122C83.0732 15.8516 84.0636 14.5045 84.6339 13.3141L86.7947 9.71146C87.6651 8.08244 87.6651 6.26546 85.8043 6.26546H75.4502L70.018 15.8516V15.8516ZM60.9844 31.7032H71.5786C74.0396 31.7032 75.03 30.3557 75.5998 29.1657L77.7611 25.5631C78.6315 23.9027 78.6315 22.1171 76.7407 22.1171H66.4166L60.9844 31.7032V31.7032ZM296.968 13.878C295.318 13.878 293.907 12.5309 293.907 10.7139C293.907 8.89695 295.318 7.5812 296.968 7.5812C298.619 7.5812 300 8.89695 300 10.7139C300 12.5309 298.619 13.878 296.968 13.878ZM294.507 10.7139C294.507 12.2176 295.589 13.3454 296.968 13.3454C298.319 13.3454 299.399 12.2176 299.399 10.7139C299.399 9.21022 298.319 8.08244 296.968 8.08244C295.589 8.08244 294.507 9.21022 294.507 10.7139ZM296.339 10.9646V12.5309H295.799V8.89695H297.119C297.96 8.89695 298.349 9.21022 298.349 9.93075C298.349 10.5886 297.959 10.8706 297.449 10.9332L298.44 12.5309H297.839L296.939 10.9646H296.339ZM296.339 10.4946H296.969C297.419 10.4946 297.81 10.4633 297.81 9.89942C297.81 9.46084 297.419 9.36686 297.059 9.36686H296.339V10.4946V10.4946Z" fill="white"/>
</svg>
